<svg xmlns="http://www.w3.org/2000/svg" viewBox="0 0 383.24 150.98"><defs><style>.cls-1{fill:#231f20;}.cls-2{fill:#fff200;}.cls-3{fill:#58595b;}.cls-4{fill:#a7a9ac;}.cls-5{font-size:15.37px;font-family:OpenSans-ExtraBold, Open Sans;font-weight:700;}.cls-5,.cls-6{fill:#fff;}</style></defs><title>Asset 1</title><g id="Layer_2" data-name="Layer 2"><g id="Layer_1-2" data-name="Layer 1"><path class="cls-1" d="M364.87,114.24H18.37a18.37,18.37,0,0,0,0,36.74h346.5a18.37,18.37,0,1,0,0-36.74Z"/><path class="cls-2" d="M322.26,68.22h.34"/><path class="cls-1" d="M249.23,85.85a10.19,10.19,0,0,1,5.4-9,12.56,12.56,0,0,0,8.65-11.93s0-.06,0-.08h0V56.51h0a19.34,19.34,0,0,0-19-19.14H181.49A13.77,13.77,0,0,0,168,51.12h0V82.68a7.79,7.79,0,0,1-15.58,0V51.12h0s0-.08,0-.12a13.78,13.78,0,0,0-27.55,0v.12h0V85.29h0v.2a23.72,23.72,0,0,0,23.72,23.73h23v0l.41,0A23.72,23.72,0,0,0,195.6,85.49c0-.55,0-1.09-.06-1.63V57.26h33.2a7.71,7.71,0,0,1,.92,15.36c-.29,0-.57,0-.86.06h-.06a10.77,10.77,0,0,0-7.86,16.43h0l12.29,20.29H264.4L250.69,91.09A10.14,10.14,0,0,1,249.23,85.85Z"/><path class="cls-1" d="M342,29V27.9H318v-5h11.84V21.87h11.12V21H329.79V20h-6.91V18.93h6V18h-1.06v-1.1h6.09V16h-6.09V14.93h-6.94v-1h-1V13h-2.31v-.21h-4.69v-.86h13V11h-8V9.92h1v-1h15V8H328V7h-2V6h-1.09V5h-15V3H312V2h-2.14V1h-1.07V0H47.54a14.5,14.5,0,0,0,0,29H62.47v81.09h41.94V29H289.93a11,11,0,1,1,0,22.08h0A13.75,13.75,0,0,0,276.4,64.83v7.52h0a10.85,10.85,0,0,0,2,6.2l-.05-.06,20,31.24,0,0v.05h36.33v-.82h5v-2h-.92v-1h-2v-3h-14v-1h-7v-1H322v-1h-2.06V98.9h1V98H332V97h-7.18V96H311V94h11.91V93h6.06V92h-8V90.9H309v-4h8v-1h-7v-2h-1V83h11V81h-8.06V78.9h-1.06V78h-.85V77h11V76h-11V74h-1V71h7V69.94h-7v-4h1V64.86h1.89V64H313V62h12v-1H309V60h18.9V58.94H309V57h17.93v-.91H310v-1.2h7.58v-.94h12.4V53h2V52h-6.18V50h1.12V49h-5.94V46.93h6.91v-1h-6V44h12.88V43H322.94V42h7V41h5.94V40h-6.09V38.93h6.09V38h1V37h-7.09V29ZM146.68,23.79a9.08,9.08,0,1,1,9.08-9.08A9.07,9.07,0,0,1,146.68,23.79Zm25.43,0a9.08,9.08,0,1,1,9.08-9.08A9.07,9.07,0,0,1,172.11,23.79Z"/><polygon class="cls-3" points="310.89 4.02 310.89 3.02 309.89 3.02 309.89 4.02 309.89 5.03 310.89 5.03 310.89 4.02"/><rect class="cls-3" x="309.89" y="1.01" width="1.95" height="1.01"/><rect class="cls-3" x="317.91" y="9.92" width="0.96" height="1.07"/><rect class="cls-3" x="312.85" y="11.93" width="1.08" height="0.87"/><rect class="cls-3" x="318.93" y="8.9" width="4.97" height="1.07"/><rect class="cls-3" x="327.82" y="16.93" width="1.06" height="1.09"/><rect class="cls-3" x="319.85" y="12.99" width="1.03" height="0.91"/><rect class="cls-3" x="317.95" y="27.02" width="0.93" height="0.84"/><rect class="cls-3" x="329.79" y="30.95" width="1.07" height="1.07"/><rect class="cls-3" x="329.79" y="32.99" width="1.07" height="0.98"/><rect class="cls-3" x="329.79" y="34.92" width="1.07" height="1.07"/><rect class="cls-3" x="320.94" y="46.93" width="0.88" height="1.03"/><rect class="cls-3" x="308.95" y="56.98" width="0.92" height="0.99"/><rect class="cls-3" x="309.96" y="64.86" width="1.86" height="1.12"/><rect class="cls-3" x="308.95" y="66.99" width="0.92" height="1.98"/><rect class="cls-3" x="315.94" y="69.94" width="4.91" height="1.05"/><rect class="cls-3" x="308.95" y="72.97" width="0.99" height="0.99"/><rect class="cls-3" x="308.95" y="70.99" width="0.92" height="0.96"/><rect class="cls-3" x="320.94" y="75.96" width="0.9" height="1"/><rect class="cls-3" x="311.85" y="79.98" width="0.99" height="0.99"/><rect class="cls-3" x="319.79" y="81.99" width="1.01" height="1.01"/><rect class="cls-3" x="308.95" y="89.99" width="0.91" height="0.91"/><rect class="cls-3" x="308.95" y="86.9" width="0.91" height="1.06"/><rect class="cls-3" x="310.97" y="95.01" width="0.88" height="0.99"/><polygon class="cls-3" points="320.91 98.9 319.91 98.9 319.91 99.96 320.91 99.96 320.91 98.91 331.95 98.91 331.95 97.96 320.91 97.96 320.91 98.9"/><rect class="cls-3" x="336.87" y="102.94" width="3.98" height="1.03"/><rect class="cls-3" x="336.86" y="105" width="1" height="0.95"/><rect class="cls-4" x="309.86" y="86.9" width="2.97" height="1.06"/><rect class="cls-4" x="309.86" y="89.99" width="2.97" height="0.91"/><rect class="cls-4" x="308.95" y="87.96" width="0.91" height="2.03"/><rect class="cls-4" x="311.85" y="95.01" width="5" height="0.99"/><rect class="cls-4" x="310.97" y="93.96" width="0.88" height="1.04"/><rect class="cls-4" x="315.88" y="100.96" width="0.97" height="0.97"/><rect class="cls-4" x="334.86" y="108.99" width="1.01" height="0.99"/><rect class="cls-4" x="339.86" y="107" width="0.99" height="0.99"/><rect class="cls-4" x="338.87" y="105.94" width="0.97" height="1.04"/><rect class="cls-4" x="337.85" y="105" width="1.01" height="0.95"/><rect class="cls-4" x="336.87" y="103.97" width="0.99" height="1.03"/><rect class="cls-4" x="340.85" y="102.94" width="0.99" height="1.03"/><rect class="cls-4" x="322.88" y="101.94" width="0.98" height="1"/><rect class="cls-4" x="320.9" y="98.91" width="1.05" height="1.05"/><rect class="cls-4" x="324.86" y="95.99" width="1.05" height="0.98"/><rect class="cls-4" x="331.95" y="96.97" width="0.9" height="1.94"/><rect class="cls-4" x="328.94" y="91.99" width="3.91" height="0.98"/><rect class="cls-4" x="320.9" y="90.9" width="0.98" height="1.1"/><rect class="cls-4" x="316.86" y="85.93" width="0.98" height="1.06"/><rect class="cls-4" x="309.93" y="84.98" width="0.98" height="0.95"/><rect class="cls-4" x="308.95" y="82.99" width="1" height="0.91"/><rect class="cls-4" x="320.8" y="81.99" width="1.06" height="1"/><rect class="cls-4" x="319.91" y="80.96" width="1.06" height="1"/><polygon class="cls-4" points="313.9 80.96 313.9 79.97 312.91 79.97 312.91 78.91 311.85 78.91 311.85 79.97 312.84 79.97 312.84 80.96 313.9 80.96"/><rect class="cls-4" x="310.88" y="77.99" width="0.98" height="0.91"/><rect class="cls-4" x="309.95" y="76.96" width="0.93" height="1.03"/><rect class="cls-4" x="309.92" y="74.99" width="0.93" height="1"/><rect class="cls-4" x="309.94" y="72.97" width="0.93" height="1"/><rect class="cls-4" x="308.95" y="71.96" width="0.93" height="1"/><rect class="cls-4" x="320.85" y="69.94" width="0.93" height="1.05"/><rect class="cls-4" x="308.95" y="68.98" width="0.93" height="0.97"/><rect class="cls-4" x="308.95" y="65.94" width="1.01" height="1.05"/><polygon class="cls-4" points="314.09 62.82 316.11 62.82 316.11 61.98 312.98 61.98 312.98 62.82 312.97 62.82 312.97 63.98 311.86 63.98 311.86 64.86 312.98 64.86 312.98 63.99 314.09 63.99 314.09 62.82"/><rect class="cls-4" x="309.87" y="56.98" width="0.99" height="0.99"/><rect class="cls-4" x="308.95" y="57.98" width="0.92" height="0.97"/><rect class="cls-4" x="308.95" y="60.03" width="2.29" height="0.92"/><rect class="cls-4" x="309.96" y="54.87" width="1.2" height="1.2"/><rect class="cls-4" x="317.53" y="53.93" width="1.2" height="0.93"/><rect class="cls-4" x="329.94" y="52.95" width="1.19" height="0.98"/><rect class="cls-4" x="331.94" y="51.96" width="1.15" height="0.99"/><rect class="cls-4" x="325.75" y="50.96" width="1.19" height="0.98"/><rect class="cls-4" x="326.87" y="49" width="1.19" height="0.96"/><polygon class="cls-4" points="321.82 47.96 320.94 47.96 320.94 48.99 321.82 48.99 321.82 47.96 322.84 47.96 322.84 46.93 321.82 46.93 321.82 47.96"/><rect class="cls-4" x="327.84" y="45.93" width="1.02" height="1"/><polygon class="cls-4" points="322.9 43.96 321.88 43.96 321.88 44.93 321.88 44.93 321.88 45.93 324.71 45.93 324.71 44.93 322.9 44.93 322.9 43.96"/><rect class="cls-4" x="322.94" y="42.03" width="1.01" height="0.97"/><rect class="cls-4" x="334.74" y="42.99" width="1.01" height="0.97"/><rect class="cls-4" x="329.94" y="40.96" width="1.01" height="1.06"/><rect class="cls-4" x="335.85" y="39.99" width="1.01" height="0.96"/><rect class="cls-4" x="329.79" y="38.93" width="1.01" height="1.06"/><rect class="cls-4" x="335.88" y="37.98" width="1" height="0.96"/><rect class="cls-4" x="336.88" y="37.02" width="1" height="0.96"/><rect class="cls-4" x="329.79" y="35.99" width="3.15" height="1.04"/><rect class="cls-4" x="329.79" y="33.98" width="3.15" height="0.95"/><rect class="cls-4" x="329.79" y="32.02" width="3.15" height="0.97"/><polygon class="cls-4" points="329.79 29.99 329.79 30.02 329.79 30.95 330.86 30.95 330.86 30.02 334.34 30.02 334.34 28.95 329.79 28.95 329.79 29.99"/><polygon class="cls-4" points="326.04 27.91 326.04 27.02 320.37 27.02 320.37 22.93 317.95 22.93 317.95 27.02 318.89 27.02 318.89 27.91 326.04 27.91"/><rect class="cls-4" x="341.97" y="27.9" width="1" height="1.06"/><rect class="cls-4" x="329.79" y="21.87" width="2.99" height="1.06"/><rect class="cls-4" x="322.88" y="18.93" width="2.42" height="1.06"/><rect class="cls-4" x="329.79" y="19.99" width="2.41" height="1.01"/><polygon class="cls-4" points="329.97 18.03 332.2 18.03 332.2 16.93 328.88 16.93 328.88 18.03 328.88 18.93 329.97 18.93 329.97 18.03"/><rect class="cls-4" x="327.82" y="14.93" width="1.08" height="1.06"/><rect class="cls-4" x="340.9" y="21" width="0.87" height="0.87"/><rect class="cls-4" x="333.9" y="15.99" width="0.87" height="0.94"/><polygon class="cls-4" points="320.88 12.99 320.88 13.9 320.88 14.94 323.29 14.94 323.29 13.9 321.58 13.9 321.58 12.99 320.88 12.99"/><rect class="cls-4" x="317.54" y="12.79" width="0.66" height="0.2"/><rect class="cls-4" x="313.93" y="11.93" width="1.17" height="0.87"/><rect class="cls-4" x="318.87" y="9.92" width="2.24" height="1.07"/><rect class="cls-4" x="325.88" y="10.99" width="0.94" height="0.94"/><rect class="cls-4" x="323.9" y="8.9" width="1.55" height="1.07"/><rect class="cls-4" x="310.9" y="3.95" width="1.55" height="1.07"/><rect class="cls-4" x="327.96" y="6.97" width="1.61" height="0.98"/><rect class="cls-4" x="326.01" y="6" width="0.98" height="0.98"/><rect class="cls-4" x="324.94" y="5.02" width="1.08" height="0.98"/><rect class="cls-4" x="333.9" y="7.95" width="1.08" height="0.95"/><polygon class="cls-4" points="312.02 2.98 313.1 2.98 313.1 2.03 312.92 2.03 312.92 1.01 311.84 1.01 311.84 2.03 312.02 2.03 312.02 2.98"/><rect class="cls-4" x="308.81" width="1.08" height="1.01"/><text class="cls-5" transform="translate(16.62 136.37)">TÜRR ISTVÁN GAZDASÁGI SZAKKÖZÉPISKOLA</text><circle class="cls-6" cx="172.11" cy="14.71" r="9.41"/><circle class="cls-6" cx="146.68" cy="14.71" r="9.41"/></g></g></svg>