<svg xmlns="http://www.w3.org/2000/svg" viewBox="0 0 663.44 218"><defs><style>.cls-1{fill:#2ff;stroke:#000;stroke-miterlimit:10;stroke-width:2px;}</style></defs><title>Asset 1</title><g id="Layer_2" data-name="Layer 2"><g id="Layer_1-2" data-name="Layer 1"><g id="Layer_2-2" data-name="Layer 2"><g id="Layer_1-2-2" data-name="Layer 1-2"><circle class="cls-1" cx="292.94" cy="28" r="27"/><circle class="cls-1" cx="198.68" cy="28" r="27"/><path class="cls-1" d="M632,177.6a22.19,22.19,0,0,1-3.1-11.2,21.72,21.72,0,0,1,11.6-19.3A26.85,26.85,0,0,0,659,121.6v-18a41.46,41.46,0,0,0-40.7-41H500.84A29.49,29.49,0,0,0,471.94,92v67.6a15.92,15.92,0,0,1-2,7.9l-6.5,10.2-22.1,29.6-22.2-29.7a22.19,22.19,0,0,1-3.1-11.2,21.72,21.72,0,0,1,11.6-19.3,26.85,26.85,0,0,0,18.5-25.5v-18a41.46,41.46,0,0,0-40.7-41H288A29.48,29.48,0,0,0,259.14,92v67.6a16.7,16.7,0,0,1-33.4,0V91.8a29.51,29.51,0,0,0-59,0v73.9a50.81,50.81,0,0,0,50.8,50.8h50.2a50.67,50.67,0,0,0,50.5-50.8c0-1.2,0-2.3-.1-3.5V105.3h54.2a16.51,16.51,0,0,1,1.9,32.9,12.07,12.07,0,0,0-1.8.1h-.1a23.07,23.07,0,0,0-20.2,25.6,23.54,23.54,0,0,0,3.4,9.6l26.3,43.4h52.6l-.1.1h66.9l26-43.5a23.54,23.54,0,0,0,3.4-9.6,19.36,19.36,0,0,0,.3-3.4l-.1-55.4H585a16.51,16.51,0,0,1,1.9,32.9,12.07,12.07,0,0,0-1.8.1H585a23.07,23.07,0,0,0-20.2,25.6,23.54,23.54,0,0,0,3.4,9.6l26.3,43.4h66.9Z"/><path class="cls-1" d="M117.44,62.9H29.74a29.51,29.51,0,0,0,0,59h59v66a29.51,29.51,0,0,0,59,0V92.1C147.24,75.6,133.74,62.5,117.44,62.9Z"/></g></g></g></g></svg>