<svg xmlns="http://www.w3.org/2000/svg" viewBox="0 0 663.41 258.04"><defs><style>.cls-1{fill:#2ff;stroke-width:2px;}.cls-1,.cls-2{stroke:#000;stroke-miterlimit:10;}.cls-2{isolation:isolate;font-size:37.85px;fill:#fff;font-family:ErasITC-Bold, Eras Bold ITC;}</style></defs><title>Asset 6</title><g id="Layer_2" data-name="Layer 2"><g id="Layer_1-2" data-name="Layer 1"><circle class="cls-1" cx="292.91" cy="28.01" r="27"/><circle class="cls-1" cx="198.63" cy="28.01" r="27" transform="translate(157.6 224.36) rotate(-86.22)"/><path class="cls-1" d="M632,177.61a22.23,22.23,0,0,1-3.1-11.2,21.73,21.73,0,0,1,11.6-19.3,26.87,26.87,0,0,0,18.5-25.5v-18a41.46,41.46,0,0,0-40.7-41H500.81A29.48,29.48,0,0,0,471.91,92v67.6a16,16,0,0,1-2,7.9l-6.5,10.2-22.1,29.6-22.2-29.7a22.23,22.23,0,0,1-3.1-11.2,21.73,21.73,0,0,1,11.6-19.3,26.87,26.87,0,0,0,18.5-25.5v-18a41.46,41.46,0,0,0-40.7-41H288A29.48,29.48,0,0,0,259.11,92v67.6a16.7,16.7,0,0,1-33.4,0V91.81a29.51,29.51,0,0,0-59,0v73.9a50.81,50.81,0,0,0,50.8,50.8h50.2a50.68,50.68,0,0,0,50.5-50.8c0-1.2,0-2.3-.1-3.5v-56.9h54.2a16.51,16.51,0,0,1,1.9,32.9,10.87,10.87,0,0,0-1.8.1h-.1a23.06,23.06,0,0,0-20.2,25.6,23.54,23.54,0,0,0,3.4,9.6l26.3,43.4h52.6l-.1.1h66.9l26-43.5a23.54,23.54,0,0,0,3.4-9.6,19.53,19.53,0,0,0,.3-3.4l-.1-55.4H585a16.51,16.51,0,0,1,1.9,32.9,10.87,10.87,0,0,0-1.8.1H585a23.06,23.06,0,0,0-20.2,25.6,23.54,23.54,0,0,0,3.4,9.6l26.3,43.4h66.9Z"/><path class="cls-1" d="M117.41,62.91H29.71a29.51,29.51,0,0,0,0,59h59v66a29.51,29.51,0,0,0,59,0V92.11C147.21,75.61,133.71,62.51,117.41,62.91Z"/><text class="cls-2" transform="translate(1 248.03) scale(1.07 1)">Bajai SZC Türr István Technikum</text></g></g></svg>