<svg xmlns="http://www.w3.org/2000/svg" viewBox="0 0 383.3 151"><defs><style>.cls-1{fill:#fff200;}.cls-2{fill:#58595b;}.cls-3{fill:#a7a9ac;}.cls-4,.cls-6{isolation:isolate;font-family:OpenSans-Bold, Open Sans;font-weight:700;}.cls-4{font-size:15.37px;}.cls-4,.cls-5,.cls-6{fill:#fff;}.cls-6{font-size:18px;}</style></defs><title>Asset 5</title><g id="Layer_2" data-name="Layer 2"><g id="Layer_1-2" data-name="Layer 1"><path d="M342,29V27.9H318v-5h11.8v-1H341V21H329.8V20h-6.9V18.9h6V18h-1.1V16.9h6.1V16h-6.1V14.9h-6.9v-1h-1V13h-2.3v-.2h-4.7v-.9h13V11h-8V9.9h1v-1h15V8H328V7h-2V6h-1.1V5h-15V3H312V2h-2.1V1h-1.1V0H47.5a14.5,14.5,0,0,0,0,29H62.4v81.1h41.9V29H289.8a11,11,0,0,1,0,22,13.7,13.7,0,0,0-13.5,13.8v7.5a10.66,10.66,0,0,0,2,6.2v-.1l20,31.2h36.3V109h5v-2h-.9v-1h-2v-3h-14v-1h-7v-1h6.2v-1h-2.1V98.9h1V98H332V97h-7.2V96H311V94h11.9V93H329V92h-8V90.9H309v-4h8v-1h-7v-2h-1V83h11V81h-8.1V78.9h-1.1V78H310V77h11V76H310V74h-1V71h7V69.9h-7v-4h1V64.8h1.9V64H313V62h12V61H309V60h18.9V58.9H309V57h17.9v-.9H310V54.9h7.6V54H330V53h2V52h-6.2V50h1.1V49H321V46.9h6.9v-1h-6V44h12.9V43H323V42h7V41h5.9V40h-6.1V38.9h6.1V38h1V37h-7.1V29Z"/><g id="Layer_1-2-2" data-name="Layer 1-2"><path class="cls-1" d="M322.3,68.2h.3"/><path d="M249.2,85.8a10.24,10.24,0,0,1,5.4-9,12.68,12.68,0,0,0,8.7-11.9v-.1h0V56.5h0a19.21,19.21,0,0,0-19-19.1H181.5A13.68,13.68,0,0,0,168,51.1h0V82.7a7.8,7.8,0,0,1-15.6,0h0V51.1h0V51a13.75,13.75,0,0,0-27.5,0v.1h0V85.3h0v.2a23.69,23.69,0,0,0,23.7,23.7H172a23.73,23.73,0,0,0,23.6-23.7,8.08,8.08,0,0,0-.1-1.6V57.3h33.2a7.68,7.68,0,0,1,.9,15.3,2.77,2.77,0,0,0-.9.1h-.1a10.74,10.74,0,0,0-9.4,12,10.6,10.6,0,0,0,1.6,4.5h0l12.3,20.3h31.2L250.6,91.2A11.43,11.43,0,0,1,249.2,85.8Z"/><polygon class="cls-2" points="310.9 4 310.9 3 309.9 3 309.9 4 309.9 5 310.9 5 310.9 4"/><rect class="cls-2" x="309.9" y="1" width="2" height="1"/><rect class="cls-2" x="317.9" y="9.9" width="1" height="1.1"/><rect class="cls-2" x="312.9" y="11.9" width="1.1" height="0.9"/><rect class="cls-2" x="318.9" y="8.9" width="5" height="1.1"/><rect class="cls-2" x="327.8" y="16.9" width="1.1" height="1.1"/><rect class="cls-2" x="319.9" y="13" width="1" height="0.9"/><rect class="cls-2" x="318" y="27" width="0.9" height="0.8"/><rect class="cls-2" x="329.8" y="30.9" width="1.1" height="1.1"/><rect class="cls-2" x="329.8" y="33" width="1.1" height="1"/><rect class="cls-2" x="329.8" y="34.9" width="1.1" height="1.1"/><rect class="cls-2" x="320.9" y="46.9" width="0.9" height="1"/><rect class="cls-2" x="309" y="57" width="0.9" height="1"/><rect class="cls-2" x="310" y="64.9" width="1.9" height="1.1"/><rect class="cls-2" x="309" y="67" width="0.9" height="2"/><rect class="cls-2" x="315.9" y="69.9" width="4.9" height="1.1"/><rect class="cls-2" x="309" y="73" width="1" height="1"/><rect class="cls-2" x="309" y="71" width="0.9" height="1"/><rect class="cls-2" x="320.9" y="76" width="0.9" height="1"/><rect class="cls-2" x="311.9" y="80" width="1" height="1"/><rect class="cls-2" x="319.8" y="82" width="1" height="1"/><rect class="cls-2" x="309" y="90" width="0.9" height="0.9"/><rect class="cls-2" x="309" y="86.9" width="0.9" height="1.1"/><rect class="cls-2" x="311" y="95" width="0.9" height="1"/><polygon class="cls-2" points="320.9 98.9 319.9 98.9 319.9 100 320.9 100 320.9 98.9 332 98.9 332 98 320.9 98 320.9 98.9"/><rect class="cls-2" x="336.9" y="102.9" width="4" height="1"/><rect class="cls-2" x="336.9" y="105" width="1" height="0.9"/><rect class="cls-3" x="309.9" y="86.9" width="3" height="1.1"/><rect class="cls-3" x="309.9" y="90" width="3" height="0.9"/><rect class="cls-3" x="309" y="88" width="0.9" height="2"/><rect class="cls-3" x="311.9" y="95" width="5" height="1"/><rect class="cls-3" x="311" y="94" width="0.9" height="1"/><rect class="cls-3" x="315.9" y="101" width="1" height="1"/><rect class="cls-3" x="334.9" y="109" width="1" height="1"/><rect class="cls-3" x="339.9" y="107" width="1" height="1"/><rect class="cls-3" x="338.9" y="105.9" width="1" height="1"/><rect class="cls-3" x="337.9" y="105" width="1" height="0.9"/><rect class="cls-3" x="336.9" y="104" width="1" height="1"/><rect class="cls-3" x="340.9" y="102.9" width="1" height="1"/><rect class="cls-3" x="322.9" y="101.9" width="1" height="1"/><rect class="cls-3" x="320.9" y="98.9" width="1" height="1.1"/><rect class="cls-3" x="324.9" y="96" width="1" height="1"/><rect class="cls-3" x="332" y="97" width="0.9" height="1.9"/><rect class="cls-3" x="328.9" y="92" width="3.9" height="1"/><rect class="cls-3" x="320.9" y="90.9" width="1" height="1.1"/><rect class="cls-3" x="316.9" y="85.9" width="1" height="1.1"/><rect class="cls-3" x="309.9" y="85" width="1" height="0.9"/><rect class="cls-3" x="309" y="83" width="1" height="0.9"/><rect class="cls-3" x="320.8" y="82" width="1.1" height="1"/><rect class="cls-3" x="319.9" y="81" width="1.1" height="1"/><polygon class="cls-3" points="313.9 81 313.9 80 312.9 80 312.9 78.9 311.9 78.9 311.9 80 312.8 80 312.8 81 313.9 81"/><rect class="cls-3" x="310.9" y="78" width="1" height="0.9"/><rect class="cls-3" x="310" y="77" width="0.9" height="1"/><rect class="cls-3" x="309.9" y="75" width="0.9" height="1"/><rect class="cls-3" x="309.9" y="73" width="0.9" height="1"/><rect class="cls-3" x="309" y="72" width="0.9" height="1"/><rect class="cls-3" x="320.9" y="69.9" width="0.9" height="1.1"/><rect class="cls-3" x="309" y="69" width="0.9" height="1"/><rect class="cls-3" x="309" y="65.9" width="1" height="1.1"/><polygon class="cls-3" points="314.1 62.8 316.1 62.8 316.1 62 313 62 313 62.8 313 62.8 313 64 311.9 64 311.9 64.9 313 64.9 313 64 314.1 64 314.1 62.8"/><rect class="cls-3" x="309.9" y="57" width="1" height="1"/><rect class="cls-3" x="309" y="58" width="0.9" height="1"/><rect class="cls-3" x="309" y="60" width="2.3" height="0.9"/><rect class="cls-3" x="310" y="54.9" width="1.2" height="1.2"/><rect class="cls-3" x="317.5" y="53.9" width="1.2" height="0.9"/><rect class="cls-3" x="329.9" y="52.9" width="1.2" height="1"/><rect class="cls-3" x="331.9" y="52" width="1.1" height="1"/><rect class="cls-3" x="325.8" y="51" width="1.2" height="1"/><rect class="cls-3" x="326.9" y="49" width="1.2" height="1"/><polygon class="cls-3" points="321.8 48 320.9 48 320.9 49 321.8 49 321.8 48 322.8 48 322.8 46.9 321.8 46.9 321.8 48"/><rect class="cls-3" x="327.8" y="45.9" width="1" height="1"/><polygon class="cls-3" points="322.9 44 321.9 44 321.9 44.9 321.9 44.9 321.9 45.9 324.7 45.9 324.7 44.9 322.9 44.9 322.9 44"/><rect class="cls-3" x="322.9" y="42" width="1" height="1"/><rect class="cls-3" x="334.7" y="43" width="1" height="1"/><rect class="cls-3" x="329.9" y="41" width="1" height="1.1"/><rect class="cls-3" x="335.9" y="40" width="1" height="1"/><rect class="cls-3" x="329.8" y="38.9" width="1" height="1.1"/><rect class="cls-3" x="335.9" y="38" width="1" height="1"/><rect class="cls-3" x="336.9" y="37" width="1" height="1"/><rect class="cls-3" x="329.8" y="36" width="3.1" height="1"/><rect class="cls-3" x="329.8" y="34" width="3.1" height="1"/><rect class="cls-3" x="329.8" y="32" width="3.1" height="1"/><polygon class="cls-3" points="329.8 30 329.8 30 329.8 30.9 330.9 30.9 330.9 30 334.3 30 334.3 28.9 329.8 28.9 329.8 30"/><polygon class="cls-3" points="326 27.9 326 27 320.4 27 320.4 22.9 318 22.9 318 27 318.9 27 318.9 27.9 326 27.9"/><rect class="cls-3" x="342" y="27.9" width="1" height="1.1"/><rect class="cls-3" x="329.8" y="21.9" width="3" height="1.1"/><rect class="cls-3" x="322.9" y="18.9" width="2.4" height="1.1"/><rect class="cls-3" x="329.8" y="20" width="2.4" height="1"/><polygon class="cls-3" points="330 18 332.2 18 332.2 16.9 328.9 16.9 328.9 18 328.9 18.9 330 18.9 330 18"/><rect class="cls-3" x="327.8" y="14.9" width="1.1" height="1.1"/><rect class="cls-3" x="340.9" y="21" width="0.9" height="0.9"/><rect class="cls-3" x="333.9" y="16" width="0.9" height="0.9"/><polygon class="cls-3" points="320.9 13 320.9 13.9 320.9 14.9 323.3 14.9 323.3 13.9 321.6 13.9 321.6 13 320.9 13"/><rect class="cls-3" x="317.5" y="12.8" width="0.7" height="0.2"/><rect class="cls-3" x="313.9" y="11.9" width="1.2" height="0.9"/><rect class="cls-3" x="318.9" y="9.9" width="2.2" height="1.1"/><rect class="cls-3" x="325.9" y="11" width="0.9" height="0.9"/><rect class="cls-3" x="323.9" y="8.9" width="1.5" height="1.1"/><rect class="cls-3" x="310.9" y="3.9" width="1.5" height="1.1"/><rect class="cls-3" x="328" y="7" width="1.6" height="1"/><rect class="cls-3" x="326" y="6" width="1" height="1"/><rect class="cls-3" x="324.9" y="5" width="1.1" height="1"/><rect class="cls-3" x="333.9" y="7.9" width="1.1" height="0.9"/><polygon class="cls-3" points="312 3 313.1 3 313.1 2 312.9 2 312.9 1 311.8 1 311.8 2 312 2 312 3"/><rect class="cls-3" x="308.8" width="1.1" height="1"/><text class="cls-4" transform="translate(16.62 136.37)">TÜRR ISTVÁN GAZDASÁGI SZAKKÖZÉPISKOLA</text><circle class="cls-5" cx="138.3" cy="14" r="9.4"/></g><path d="M364.9,114.2H18.4a18.4,18.4,0,0,0,0,36.8H364.9a18.4,18.4,0,1,0,0-36.8Z"/><text class="cls-6" transform="translate(48.54 138.12)">Bajai SZC Türr István Technikum</text><circle class="cls-5" cx="181.7" cy="13.9" r="9.4"/></g></g></svg>